<svg xmlns="http://www.w3.org/2000/svg" id="Layer_2" viewBox="0 0 81.29 95.37"><defs><clipPath id="clippath"><path d="M49.22 34.05c-.07.13-.12.23-.18.33-5.05 9.06-10.09 18.12-15.14 27.17-2.63 4.72-5.26 9.45-7.89 14.17l-6.9 12.36c-.86 1.53-1.71 3.07-2.56 4.61-1.34 2.44-4.66 3.44-7.08 2.01-2.05-1.2-4.02-2.53-6.02-3.82-.62-.4-1.25-.78-1.8-1.26-1.73-1.53-2.18-4.26-1.02-6.34.62-1.12 1.34-2.19 2.04-3.28 11.39-17.82 22.78-35.64 34.17-53.47.06-.1.1-.21.17-.35 4.09 2.63 8.13 5.23 12.2 7.85Z" class="cls-2"/></clipPath><clipPath id="clippath-1"><path d="m-17.474 10.934 90.812-20.966 20.03 86.758L2.555 97.691z" class="cls-2"/></clipPath><clipPath id="clippath-2"><path d="M51.04 31.1c-4.19-2.57-8.31-5.1-12.46-7.65.07-.12.12-.22.18-.33.7-1.2 1.42-2.39 2.11-3.59 1.02-1.78.76-3.47-.43-5.07-.67-.9-1.57-1.49-2.53-2.02-3.39-1.85-7.02-2.93-10.84-3.41-2.55-.32-5.12-.39-7.68-.11-1.11.12-2.2.3-3.3.47-.24.04-.35 0-.41-.25-.22-.86-.45-1.71-.69-2.56-.05-.19-.02-.28.17-.37 2.37-1.2 4.79-2.3 7.28-3.24 2.51-.94 5.07-1.7 7.7-2.22C34.38-.1 38.65-.27 42.92.53c2.81.52 5.49 1.42 7.99 2.81 1.67.93 3.3 1.95 4.93 2.96 2.44 1.51 4.86 3.06 7.31 4.56.85.52 1.35 1.26 1.65 2.16.4 1.21.73 2.44 1.14 3.65.45 1.29 1.06 2.49 2.19 3.35.95.72 2.04 1.03 3.2 1.1.3.02.6.01.89 0 .33-.02.62-.12.87-.4 1.12-1.23 2.95-1.27 4.24-.51.77.45 1.48 1 2.22 1.51 1.82 1.23 2.25 3.58 1.1 5.49-1.86 3.08-3.75 6.14-5.64 9.19-1.12 1.8-3.65 2.32-5.46 1.13-.97-.63-1.95-1.27-2.83-2.01-.78-.65-1.28-1.54-1.28-2.61 0-.25.11-.53.24-.76.36-.63.28-1.26.03-1.89-.41-1.02-1.16-1.79-2.03-2.42-1.58-1.15-3.28-2.02-5.26-2.23-1.44-.15-2.83-.01-4.07.8-.43.28-.82.67-1.11 1.1-.72 1.05-1.36 2.15-2.03 3.24-.07.1-.1.23-.16.37Z" class="cls-2"/></clipPath><clipPath id="clippath-3"><path d="m-17.474 10.934 90.812-20.966 20.03 86.758L2.555 97.691z" class="cls-2"/></clipPath><style>.cls-2{fill:#aeadad}</style></defs><g id="Logo"><path d="M49.22 34.05c-.07.13-.12.23-.18.33-5.05 9.06-10.09 18.12-15.14 27.17-2.63 4.72-5.26 9.45-7.89 14.17l-6.9 12.36c-.86 1.53-1.71 3.07-2.56 4.61-1.34 2.44-4.66 3.44-7.08 2.01-2.05-1.2-4.02-2.53-6.02-3.82-.62-.4-1.25-.78-1.8-1.26-1.73-1.53-2.18-4.26-1.02-6.34.62-1.12 1.34-2.19 2.04-3.28 11.39-17.82 22.78-35.64 34.17-53.47.06-.1.1-.21.17-.35 4.09 2.63 8.13 5.23 12.2 7.85Z" class="cls-2"/><g style="clip-path:url(#clippath)"><path d="m-17.474 10.934 90.812-20.966 20.03 86.758L2.555 97.691z" class="cls-2"/><path d="M-9.29 25.69h68.06V95.9H-9.29z" class="cls-2" style="clip-path:url(#clippath-1)" transform="rotate(-13 24.726 60.785)"/></g><path d="M51.04 31.1c-4.19-2.57-8.31-5.1-12.46-7.65.07-.12.12-.22.18-.33.7-1.2 1.42-2.39 2.11-3.59 1.02-1.78.76-3.47-.43-5.07-.67-.9-1.57-1.49-2.53-2.02-3.39-1.85-7.02-2.93-10.84-3.41-2.55-.32-5.12-.39-7.68-.11-1.11.12-2.2.3-3.3.47-.24.04-.35 0-.41-.25-.22-.86-.45-1.71-.69-2.56-.05-.19-.02-.28.17-.37 2.37-1.2 4.79-2.3 7.28-3.24 2.51-.94 5.07-1.7 7.7-2.22C34.38-.1 38.65-.27 42.92.53c2.81.52 5.49 1.42 7.99 2.81 1.67.93 3.3 1.95 4.93 2.96 2.44 1.51 4.86 3.06 7.31 4.56.85.52 1.35 1.26 1.65 2.16.4 1.21.73 2.44 1.14 3.65.45 1.29 1.06 2.49 2.19 3.35.95.72 2.04 1.03 3.2 1.1.3.02.6.01.89 0 .33-.02.62-.12.87-.4 1.12-1.23 2.95-1.27 4.24-.51.77.45 1.48 1 2.22 1.51 1.82 1.23 2.25 3.58 1.1 5.49-1.86 3.08-3.75 6.14-5.64 9.19-1.12 1.8-3.65 2.32-5.46 1.13-.97-.63-1.95-1.27-2.83-2.01-.78-.65-1.28-1.54-1.28-2.61 0-.25.11-.53.24-.76.36-.63.28-1.26.03-1.89-.41-1.02-1.16-1.79-2.03-2.42-1.58-1.15-3.28-2.02-5.26-2.23-1.44-.15-2.83-.01-4.07.8-.43.28-.82.67-1.11 1.1-.72 1.05-1.36 2.15-2.03 3.24-.07.1-.1.23-.16.37Z" class="cls-2"/><g style="clip-path:url(#clippath-2)"><path d="m-17.474 10.934 90.812-20.966 20.03 86.758L2.555 97.691z" class="cls-2"/><path d="M14.71-7.23h68.88v54.25H14.71z" class="cls-2" style="clip-path:url(#clippath-3)" transform="rotate(-13 49.164 19.916)"/></g></g></svg>